<svg version="1.1" id="fi_9202" xmlns="http://www.w3.org/2000/svg" xmlns:xlink="http://www.w3.org/1999/xlink" x="0px" y="0px" viewBox="0 0 44.879 44.879" style="enable-background:new 0 0 44.879 44.879;" xml:space="preserve">
<g>
	<g>
		<g>
			<path style="fill:#010002;" d="M24.432,3.313V2.386h1.295V0h-6.438v2.386h1.156v0.927C15.533,3.779,11.121,5.95,7.802,9.229
				L7.278,8.706l0.771-0.769L7.162,7.051L4.378,9.835l0.887,0.886l0.811-0.813L6.65,10.48c-3.136,3.645-5.043,8.379-5.043,13.565
				c0,11.506,9.324,20.834,20.832,20.834c11.506,0,20.833-9.328,20.833-20.834C43.272,13.213,35.002,4.317,24.432,3.313z
				 M23.324,41.422v-3.105c0-0.485-0.396-0.885-0.885-0.885c-0.488,0-0.883,0.396-0.883,0.885v3.105
				C12.642,40.975,5.512,33.844,5.064,24.93h2.965c0.488,0,0.884-0.396,0.884-0.885c0-0.486-0.396-0.883-0.884-0.883H5.064
				c0.448-8.917,7.582-16.048,16.498-16.495c0,0.014-0.006,0.026-0.006,0.04v3.239c0,0.489,0.395,0.885,0.883,0.885
				c0.486,0,0.885-0.396,0.885-0.885V6.709c0-0.014-0.008-0.026-0.008-0.04c8.914,0.445,16.051,7.578,16.5,16.494h-2.992
				c-0.486,0-0.887,0.396-0.887,0.883c0,0.49,0.396,0.886,0.887,0.886h2.992C39.367,33.844,32.236,40.975,23.324,41.422z"></path>
			<path style="fill:#010002;" d="M25.44,25.064c0.153-0.47,0.218-0.977,0.146-1.5c-0.256-1.833-1.949-3.112-3.786-2.857
				c-1.833,0.254-3.115,1.95-2.858,3.785c0.255,1.832,1.951,3.111,3.783,2.857c0.68-0.096,1.28-0.389,1.757-0.811
				c2.268,1.479,6.564,4.277,6.564,4.277l2.199,0.375l-1.229-1.853L25.44,25.064z"></path>
		</g>
	</g>
</g>
<g>
</g>
<g>
</g>
<g>
</g>
<g>
</g>
<g>
</g>
<g>
</g>
<g>
</g>
<g>
</g>
<g>
</g>
<g>
</g>
<g>
</g>
<g>
</g>
<g>
</g>
<g>
</g>
<g>
</g>
</svg>